<svg width="393" height="306" viewBox="0 0 393 306" fill="none" xmlns="http://www.w3.org/2000/svg">
<g filter="url(#filter0_d_13_106)">
<path d="M70.999 32C94.023 32.0001 113.384 47.6792 118.989 68.9424H392.993V306H0V68.9424H23.0088C28.6142 47.6792 47.975 32 70.999 32Z" fill="#EDEDED"/>
</g>
<path d="M61.7944 65.8232V63.4858L61.86 62.3041C61.6062 62.5579 61.3085 62.768 60.9671 62.9343C60.6257 63.1007 60.2755 63.1838 59.9166 63.1838C59.3039 63.1838 58.7699 63.0306 58.3146 62.7242C57.8682 62.4179 57.5224 61.9758 57.2773 61.398C57.0322 60.8202 56.9096 60.1287 56.9096 59.3233C56.9096 58.5267 57.0541 57.8439 57.343 57.2749C57.6406 56.6971 58.0258 56.2507 58.4985 55.9355C58.9712 55.6204 59.4702 55.4628 59.9954 55.4628C60.4069 55.4628 60.7658 55.5372 61.0722 55.686C61.3873 55.8261 61.6937 56.0537 61.9913 56.3688H62.0439L62.2146 55.6466H63.7246V65.8232H61.7944ZM60.4156 61.595C60.6782 61.595 60.919 61.5381 61.1378 61.4243C61.3654 61.3017 61.5843 61.1048 61.7944 60.8334V57.6031C61.5755 57.4018 61.3479 57.2617 61.1116 57.183C60.884 57.0954 60.652 57.0516 60.4156 57.0516C60.1442 57.0516 59.8904 57.1392 59.654 57.3143C59.4264 57.4806 59.2426 57.7301 59.1025 58.0627C58.9624 58.3954 58.8924 58.8068 58.8924 59.2971C58.8924 59.8048 58.9493 60.2294 59.0631 60.5708C59.1857 60.9122 59.3608 61.1704 59.5884 61.3455C59.816 61.5118 60.0917 61.595 60.4156 61.595ZM67.8288 63.1838C67.0322 63.1838 66.4544 62.9256 66.0955 62.4091C65.7366 61.8839 65.5571 61.1573 65.5571 60.2294V55.6466H67.4743V59.993C67.4743 60.562 67.5574 60.9603 67.7237 61.1879C67.8901 61.4155 68.1571 61.5293 68.5247 61.5293C68.8224 61.5293 69.0806 61.4593 69.2995 61.3192C69.5271 61.1704 69.7634 60.9341 70.0085 60.6102V55.6466H71.9388V63H70.3631L70.2186 61.9364H70.1661C69.851 62.3128 69.5096 62.6148 69.1419 62.8424C68.7742 63.07 68.3365 63.1838 67.8288 63.1838ZM73.8522 63V55.6466H75.7825V63H73.8522ZM74.8239 54.4517C74.4825 54.4517 74.2112 54.3598 74.0098 54.176C73.8085 53.9834 73.7078 53.7251 73.7078 53.4012C73.7078 53.0861 73.8085 52.8322 74.0098 52.6396C74.2112 52.447 74.4825 52.3507 74.8239 52.3507C75.1478 52.3507 75.4148 52.447 75.6249 52.6396C75.835 52.8322 75.9401 53.0861 75.9401 53.4012C75.9401 53.7251 75.835 53.9834 75.6249 54.176C75.4148 54.3598 75.1478 54.4517 74.8239 54.4517ZM77.1969 63V61.9758L80.4927 57.1698H77.5645V55.6466H82.8957V56.684L79.5998 61.4768H83.0139V63H77.1969Z" fill="#222222"/>
<defs>
<filter id="filter0_d_13_106" x="-24" y="0" width="440.993" height="322" filterUnits="userSpaceOnUse" color-interpolation-filters="sRGB">
<feFlood flood-opacity="0" result="BackgroundImageFix"/>
<feColorMatrix in="SourceAlpha" type="matrix" values="0 0 0 0 0 0 0 0 0 0 0 0 0 0 0 0 0 0 127 0" result="hardAlpha"/>
<feOffset dy="-8"/>
<feGaussianBlur stdDeviation="12"/>
<feComposite in2="hardAlpha" operator="out"/>
<feColorMatrix type="matrix" values="0 0 0 0 0 0 0 0 0 0 0 0 0 0 0 0 0 0 0.1 0"/>
<feBlend mode="normal" in2="BackgroundImageFix" result="effect1_dropShadow_13_106"/>
<feBlend mode="normal" in="BackgroundImageFix" in2="effect1_dropShadow_13_106" result="BackgroundImageFix"/>
<feBlend mode="normal" in="SourceGraphic" in2="BackgroundImageFix" result="shape"/>
</filter>
</defs>
</svg>
