<svg width="121" height="88" viewBox="0 0 121 88" fill="none" xmlns="http://www.w3.org/2000/svg">
<path d="M18.5436 64.1795H0V42.6442C0 38.248 3.56037 34.6681 7.97375 34.6681H99.7646C100.747 34.6681 101.489 34.0374 101.489 33.0543L101.526 28.5098C101.526 27.5267 100.729 26.7291 99.746 26.7291H7.97375C3.57892 26.7291 0 23.1492 0 18.753V0H18.5436V6.41795C18.5436 7.40105 19.341 8.19866 20.3238 8.19866H111.132C116.064 8.19866 120.07 12.2052 120.07 17.1393V44.2765C120.07 49.2105 116.064 53.2171 111.132 53.2171H20.3238C19.341 53.2171 18.5436 54.0147 18.5436 54.9978V64.1981V64.1795Z" fill="#35C6C1"/>
<path d="M9.58704 68.1489C4.30212 68.1489 0 72.4337 0 77.7388C0 83.0438 4.28357 87.3286 9.58704 87.3286C14.8905 87.3286 19.1741 83.0438 19.1741 77.7388C19.1741 72.4337 14.8905 68.1489 9.58704 68.1489Z" fill="#35C6C1"/>
<path d="M55.7231 71.2658H48.8991L43.7996 83.9162C42.9651 85.9751 40.9809 87.3107 38.7557 87.3107H27.4626V83.4896H29.1687C30.5409 83.4896 31.7648 82.6549 32.284 81.3935L36.4007 71.2472H27.4812V67.4261H37.9212L41.3333 59.0234H53.8502L50.4753 67.4261H53.8131C54.8886 67.4261 55.7416 68.2979 55.7416 69.3552V71.2287L55.7231 71.2658Z" fill="#35C6C1"/>
<path d="M85.1337 61.3792V62.8631H59.933V59.042H82.7972C84.0768 59.042 85.1337 60.0807 85.1337 61.3792ZM83.8171 69.0028L76.4368 87.3107H63.8828L70.577 70.7279C70.8181 70.1528 70.3916 69.5222 69.7611 69.5222H59.933V65.7011H81.5919C83.2794 65.7011 84.4476 67.4076 83.8171 68.9843V69.0028Z" fill="#35C6C1"/>
<path d="M114.544 64.8293L104.734 87.3107H92.1801L101.786 65.3487C102.305 64.1801 101.433 62.8631 100.154 62.8631H89.3986V59.042H110.761C113.746 59.042 115.73 62.1026 114.544 64.8293ZM114.673 80.4661H110.965V87.3107H114.673V80.4661ZM120.07 80.4661H116.324V87.3107H120.07V80.4661Z" fill="#35C6C1"/>
</svg>
