<svg width="76" height="75" viewBox="0 0 76 75" fill="none" xmlns="http://www.w3.org/2000/svg">
<g filter="url(#filter0_i_23_388)">
<path d="M62.3315 20.5645L61.2241 25.7744L65.8328 28.4352C63.0655 41.4393 63.172 40.9624 60.4047 53.9665L55.1114 54.5213L54.004 59.7311C40.7827 61.125 41.2695 61.0682 28.0482 62.4621L25.8821 57.6006L20.5888 58.1554C15.1853 46.0085 15.3795 46.4584 9.97594 34.3115L13.9341 30.7476L11.7679 25.8861C21.6462 16.9875 21.2864 17.3182 31.1646 8.41953L35.7733 11.0804L39.7315 7.5164L62.3394 20.5691L62.3315 20.5645Z" fill="white"/>
<path d="M38.9998 51.9243L24.556 43.5852L24.558 29.6285L39.0033 21.2867L51.0872 28.2634L51.0857 44.9443L38.9998 51.9243ZM31.7367 39.4323L38.9981 43.6247L43.9034 40.7976L43.8987 32.4118L38.997 29.5818L31.7323 33.7707L31.7367 39.4323Z" fill="#F9A71E"/>
</g>
<defs>
<filter id="filter0_i_23_388" x="9.97593" y="7.51636" width="55.8569" height="56.9458" filterUnits="userSpaceOnUse" color-interpolation-filters="sRGB">
<feFlood flood-opacity="0" result="BackgroundImageFix"/>
<feBlend mode="normal" in="SourceGraphic" in2="BackgroundImageFix" result="shape"/>
<feColorMatrix in="SourceAlpha" type="matrix" values="0 0 0 0 0 0 0 0 0 0 0 0 0 0 0 0 0 0 127 0" result="hardAlpha"/>
<feOffset dy="2"/>
<feGaussianBlur stdDeviation="2.5"/>
<feComposite in2="hardAlpha" operator="arithmetic" k2="-1" k3="1"/>
<feColorMatrix type="matrix" values="0 0 0 0 0 0 0 0 0 0 0 0 0 0 0 0 0 0 0.25 0"/>
<feBlend mode="normal" in2="shape" result="effect1_innerShadow_23_388"/>
</filter>
</defs>
</svg>
